<?xml version="1.0" standalone="no"?>
<!DOCTYPE svg PUBLIC "-//W3C//DTD SVG 20010904//EN"
 "http://www.w3.org/TR/2001/REC-SVG-20010904/DTD/svg10.dtd">
<svg version="1.0" xmlns="http://www.w3.org/2000/svg"
 width="500.000000pt" height="500.000000pt" viewBox="0 0 500.000000 500.000000"
 preserveAspectRatio="xMidYMid meet">
<metadata>
Created by potrace 1.16, written by Peter Selinger 2001-2019
</metadata>
<g transform="translate(0.000000,500.000000) scale(0.100000,-0.100000)"
fill="#000000" stroke="none">
<path d="M0 2500 l0 -2500 2500 0 2500 0 0 2500 0 2500 -2500 0 -2500 0 0
-2500z m2829 655 c40 -20 71 -70 71 -112 l0 -33 -75 0 c-66 0 -75 2 -75 18 0
41 -63 58 -94 26 -34 -33 -18 -52 92 -109 94 -49 122 -84 122 -155 0 -66 -24
-107 -82 -140 -60 -35 -192 -36 -255 -2 -48 25 -73 65 -73 117 l0 35 69 0 c67
0 69 -1 79 -29 18 -51 112 -50 112 2 0 31 -21 49 -102 85 -37 17 -79 43 -93
58 -64 69 -35 193 58 240 65 34 180 34 246 -1z m-624 -137 l78 -163 12 65 c7
36 20 109 30 163 l17 97 69 0 c38 0 69 -3 69 -7 0 -5 -21 -128 -47 -275 l-47
-268 -72 0 -71 0 -74 155 c-40 84 -75 152 -78 149 -3 -2 -16 -71 -31 -152
l-26 -147 -72 -3 c-71 -3 -73 -2 -67 20 2 13 23 127 45 253 22 127 42 240 45
253 5 20 11 22 74 22 l68 0 78 -162z m921 145 c-3 -10 -23 -124 -46 -253 -22
-129 -43 -245 -45 -257 -5 -21 -11 -23 -75 -23 -39 0 -70 2 -70 5 0 11 91 521
95 533 3 8 28 12 75 12 63 0 71 -2 66 -17z m-1026 -867 l0 -54 31 15 c43 21
96 11 134 -27 27 -28 30 -36 30 -95 0 -59 -3 -67 -30 -95 -38 -38 -91 -48
-134 -27 -17 9 -31 11 -31 6 0 -5 -13 -9 -30 -9 l-30 0 0 170 0 170 30 0 c30
0 30 -1 30 -54z m1530 0 l0 -55 28 15 c45 23 80 18 118 -20 34 -34 34 -34 34
-130 l0 -96 -30 0 -30 0 0 82 c0 92 -13 118 -61 118 -44 0 -59 -32 -59 -122
l0 -78 -30 0 -30 0 0 170 0 170 30 0 c30 0 30 -1 30 -54z m-3475 -73 l70 -107
3 107 3 107 29 0 30 0 0 -160 0 -160 -30 0 c-27 0 -37 10 -97 102 l-68 101 -3
-101 -3 -102 -34 0 -35 0 0 160 0 160 33 0 c30 0 37 -8 102 -107z m1524 81
c40 -34 41 -64 3 -64 -16 0 -37 9 -47 20 -21 23 -57 26 -75 5 -23 -28 -7 -48
59 -71 73 -25 88 -38 96 -79 13 -67 -63 -125 -142 -110 -68 13 -117 95 -55 95
17 0 32 -8 40 -21 10 -15 21 -19 50 -17 34 3 37 6 37 33 0 27 -5 32 -55 48
-73 24 -100 51 -100 96 1 61 37 90 112 91 36 0 54 -6 77 -26z m1631 -134 l0
-160 -30 0 -30 0 0 160 0 160 30 0 30 0 0 -160z m-2820 85 c17 -9 30 -11 30
-5 0 5 14 10 30 10 l30 0 0 -125 0 -125 -30 0 c-16 0 -30 5 -30 10 0 6 -13 4
-30 -5 -83 -43 -171 17 -172 119 -2 102 88 164 172 121z m310 2 c41 -20 60
-71 60 -164 l0 -83 -30 0 -30 0 0 78 c0 91 -15 122 -60 122 -49 0 -60 -21 -60
-116 l0 -84 -30 0 -30 0 0 126 0 127 39 -6 c21 -2 45 -1 52 4 20 12 60 11 89
-4z m265 -1 c19 -8 41 -28 50 -45 l16 -31 -31 0 c-17 0 -43 9 -59 20 -53 40
-110 -12 -96 -86 3 -18 12 -38 20 -44 21 -17 62 -15 84 4 9 9 32 16 50 16 l32
0 -16 -31 c-28 -53 -107 -74 -166 -44 -88 46 -92 183 -6 235 38 24 75 25 122
6z m845 -1 c17 -9 30 -11 30 -5 0 5 14 10 30 10 l30 0 0 -125 0 -125 -30 0
c-16 0 -30 5 -30 10 0 6 -13 4 -30 -5 -39 -20 -79 -19 -117 5 -37 22 -50 43
-59 97 -16 105 86 185 176 138z m550 -13 c0 -22 -7 -31 -32 -43 l-33 -14 -3
-87 -3 -88 -29 0 -30 0 0 126 0 127 39 -6 c21 -2 45 -1 52 4 26 16 39 9 39
-19z m309 14 c40 -21 51 -56 51 -156 l0 -90 -30 0 -30 0 0 81 c0 98 -9 119
-53 119 -50 0 -57 -14 -57 -112 l0 -88 -35 0 -35 0 0 125 0 125 50 -1 c28 -1
53 1 57 4 11 12 53 8 82 -7z m251 -1 c17 -9 30 -11 30 -5 0 5 14 10 30 10 l30
0 0 -125 0 -125 -30 0 c-16 0 -30 5 -30 10 0 6 -13 4 -30 -5 -39 -20 -79 -19
-117 5 -37 22 -50 43 -59 97 -16 105 86 185 176 138z m497 -20 c13 -14 23 -33
23 -41 0 -20 -57 -18 -68 2 -9 16 -56 23 -69 11 -14 -15 10 -37 51 -48 56 -14
86 -41 86 -79 0 -82 -126 -108 -184 -39 -14 17 -26 35 -26 40 0 17 60 9 81
-12 18 -18 50 -19 68 -3 13 11 -15 35 -53 45 -72 18 -101 59 -80 114 19 49
132 56 171 10z m618 16 c30 -18 32 -18 65 0 40 22 55 23 99 8 47 -17 61 -53
61 -159 l0 -90 -30 0 -30 0 0 81 c0 99 -9 119 -54 119 -48 0 -59 -20 -64 -116
l-5 -84 -28 0 -29 0 0 88 c0 98 -7 112 -57 112 -44 0 -53 -21 -53 -119 l0 -81
-30 0 -30 0 0 125 0 125 45 -2 c25 0 48 2 52 5 12 13 58 7 88 -12z m788 5 c43
-17 67 -56 67 -106 l0 -40 -95 0 c-93 0 -95 -1 -85 -20 16 -30 54 -42 85 -28
14 6 25 15 25 20 0 4 16 8 35 8 42 0 44 -12 7 -50 -82 -81 -222 -22 -222 94 0
99 92 160 183 122z m-3713 -58 c45 -126 38 -123 75 -28 31 80 35 85 65 88 38
4 42 20 -49 -198 -67 -161 -70 -165 -101 -168 -36 -4 -36 1 0 81 21 46 23 38
-77 275 -4 8 6 12 30 12 33 0 35 -2 57 -62z m3246 -28 c12 -47 24 -78 27 -70
3 8 14 47 25 85 18 66 20 70 50 73 29 3 32 1 46 -48 9 -28 18 -68 22 -87 8
-44 16 -32 39 65 16 69 18 72 46 72 16 0 29 -3 29 -7 0 -5 -16 -61 -37 -125
l-36 -118 -32 0 c-34 0 -33 -3 -66 120 l-12 45 -21 -80 c-22 -80 -22 -80 -56
-80 l-34 0 -38 120 c-21 66 -38 121 -38 123 0 2 14 2 32 0 31 -3 33 -5 54 -88z
m-1916 -357 c0 -45 1 -47 13 -23 9 19 22 26 48 28 44 4 69 -17 69 -57 0 -35
-18 -58 -52 -66 -21 -5 -33 -1 -52 19 -24 23 -26 23 -26 6 0 -13 -7 -20 -20
-20 -15 0 -20 7 -21 28 -2 24 -2 24 -6 4 -6 -30 -49 -47 -81 -33 -13 6 -29 24
-36 41 l-12 30 -13 -35 c-23 -65 -63 -36 -88 63 -9 39 29 24 41 -16 5 -17 12
-32 16 -32 4 0 11 15 16 32 6 19 17 34 28 36 15 3 17 -1 11 -20 l-7 -23 17 23
c22 30 78 30 99 0 16 -22 16 -21 16 20 0 35 3 42 20 42 17 0 20 -7 20 -47z
m-423 11 c18 -18 29 -22 36 -15 17 17 73 13 92 -5 11 -12 15 -27 11 -53 -3
-20 -5 -37 -6 -39 0 -1 -11 -7 -25 -12 -32 -12 -75 4 -82 30 -5 19 -6 18 -25
-5 -16 -21 -28 -25 -69 -25 l-49 0 0 75 0 75 45 0 c36 0 52 -6 72 -26z m676
-24 c13 -19 13 -19 30 0 20 23 79 27 96 7 19 -24 10 -87 -15 -103 -27 -18 -70
-9 -84 17 -10 17 -12 16 -36 -7 -18 -19 -31 -24 -50 -20 -21 6 -24 3 -24 -24
0 -20 -5 -30 -15 -30 -12 0 -15 17 -15 89 l0 88 50 2 c38 0 52 -4 63 -19z"/>
<path d="M2120 2190 c-45 -45 -13 -130 50 -130 38 0 70 34 70 75 0 65 -76 99
-120 55z"/>
<path d="M396 2188 c-9 -12 -16 -36 -16 -53 0 -73 76 -104 119 -49 27 34 27
64 0 98 -27 34 -81 36 -103 4z"/>
<path d="M1816 2191 c-10 -11 -18 -36 -18 -56 0 -46 26 -75 67 -75 41 0 69 30
69 75 0 19 -8 43 -19 55 -24 26 -76 27 -99 1z"/>
<path d="M2926 2191 c-10 -11 -18 -36 -18 -56 0 -46 26 -75 67 -75 41 0 69 30
69 75 0 19 -8 43 -19 55 -24 26 -76 27 -99 1z"/>
</g>
</svg>
